<svg id="logo" xmlns="http://www.w3.org/2000/svg" viewBox="0 0 354.41 488.83"><path d="M902.47,277.31" transform="translate(-735.54 -221.23)" style="fill:#fff;stroke:#fff;stroke-miterlimit:10;stroke-width:5px"/><path d="M901.54,278.19V629.87h109.37s13,33.58-53.75,70.69" transform="translate(-735.54 -221.23)" style="fill:none;stroke:#fff;stroke-miterlimit:10;stroke-width:5px"/><path d="M901.54,356.56s20.39,91.28,131.62,230.9" transform="translate(-735.54 -221.23)" style="fill:none;stroke:#fff;stroke-miterlimit:10;stroke-width:5px"/><path d="M901.54,587.46" transform="translate(-735.54 -221.23)" style="fill:none;stroke:#fff;stroke-miterlimit:10;stroke-width:5px"/><line x1="166.01" y1="386.73" x2="353.23" y2="286.7" style="fill:none;stroke:#fff;stroke-miterlimit:10;stroke-width:5px"/><polyline points="166.01 408.64 6.59 408.64 86.3 479.33" style="fill:none;stroke:#fff;stroke-miterlimit:10;stroke-width:5px"/><path d="M779,629.87" transform="translate(-735.54 -221.23)" style="fill:none;stroke:#fff;stroke-miterlimit:10;stroke-width:7px"/><path d="M821.83,629.87S631.6,607,889.27,315.43" transform="translate(-735.54 -221.23)" style="fill:none;stroke:#fff;stroke-miterlimit:10;stroke-width:5px"/><polygon points="198.73 8.21 166.73 24.2 168.16 41.9 198.73 8.21" style="fill:none;stroke:#fff;stroke-miterlimit:10;stroke-width:5px"/><path d="M833,707.63" transform="translate(-735.54 -221.23)" style="fill:none;stroke:#fff;stroke-miterlimit:10;stroke-width:5px"/><path d="M825.54,712.93" transform="translate(-735.54 -221.23)" style="fill:none;stroke:#fff;stroke-miterlimit:10;stroke-width:5px"/><path d="M810.27,700.43" transform="translate(-735.54 -221.23)" style="fill:none;stroke:#fff;stroke-miterlimit:10;stroke-width:5px"/><path d="M807.27,700.43" transform="translate(-735.54 -221.23)" style="fill:none;stroke:#fff;stroke-miterlimit:10;stroke-width:5px"/><path d="M801.27,703.43" transform="translate(-735.54 -221.23)" style="fill:none;stroke:#fff;stroke-miterlimit:10;stroke-width:5px"/><path d="M795.27,699.3c6.88,0,6.88,8.26,13.76,8.26s6.89-8.26,13.77-8.26,6.88,8.26,13.76,8.26,6.88-8.26,13.77-8.26,6.88,8.26,13.76,8.26,6.88-8.26,13.77-8.26,6.88,8.26,13.76,8.26,6.89-8.26,13.77-8.26,6.88,8.26,13.77,8.26,6.88-8.26,13.76-8.26,6.88,8.26,13.76,8.26,6.89-8.26,13.77-8.26,6.89,8.26,13.77,8.26,6.89-8.26,13.77-8.26,6.89,8.26,13.78,8.26" transform="translate(-735.54 -221.23)" style="fill:none;stroke:#fff;stroke-miterlimit:10;stroke-width:5px"/><path d="M1052.27,683.43" transform="translate(-735.54 -221.23)" style="fill:none;stroke:#fff;stroke-miterlimit:10;stroke-width:7px"/></svg>